League Gothic-Regular.ufo
<glyph name="semicolon" format="1">
  <advance width="177"/>
  <unicode hex="003B"/>
  <outline>
    <contour>
      <point x="36" y="547" type="line"/>
      <point x="141" y="547" type="line"/>
      <point x="141" y="436" type="line"/>
      <point x="36" y="436" type="line"/>
    </contour>
    <contour>
      <point x="141" y="0" type="line"/>
      <point x="86" y="-130" type="line"/>
      <point x="36" y="-130" type="line"/>
      <point x="71" y="0" type="line"/>
      <point x="36" y="0" type="line"/>
      <point x="36" y="111" type="line"/>
      <point x="141" y="111" type="line"/>
    </contour>
  </outline>
</glyph>
<glyph name="H" format="1">
  <advance width="380"/>
  <unicode hex="0048"/>
  <outline>
    <contour>
      <point x="232" y="320" type="line"/>
      <point x="148" y="320" type="line"/>
      <point x="148" y="0" type="line"/>
      <point x="40" y="0" type="line"/>
      <point x="40" y="735" type="line"/>
      <point x="148" y="735" type="line"/>
      <point x="148" y="431" type="line"/>
      <point x="232" y="431" type="line"/>
      <point x="232" y="735" type="line"/>
      <point x="340" y="735" type="line"/>
      <point x="340" y="0" type="line"/>
      <point x="232" y="0" type="line"/>
    </contour>
    <contour>
      <point x="190" y="368" type="move" name="center"/>
    </contour>
    <contour>
      <point x="190" y="735" type="move" name="top"/>
    </contour>
  </outline>
</glyph>
<glyph name="n" format="1">
  <advance width="337"/>
  <unicode hex="006E"/>
  <outline>
    <contour>
      <point x="163" y="457"/>
      <point x="157" y="451"/>
      <point x="150" y="444" type="curve"/>
      <point x="147" y="440"/>
      <point x="144" y="436"/>
      <point x="141" y="431" type="curve"/>
      <point x="141" y="0" type="line"/>
      <point x="40" y="0" type="line"/>
      <point x="40" y="547" type="line"/>
      <point x="141" y="547" type="line"/>
      <point x="141" y="501" type="line"/>
      <point x="143" y="502"/>
      <point x="147" y="506"/>
      <point x="153" y="512" type="curve" smooth="yes"/>
      <point x="164" y="523"/>
      <point x="179" y="538"/>
      <point x="197" y="548" type="curve" smooth="yes"/>
      <point x="206" y="553"/>
      <point x="214" y="555"/>
      <point x="223" y="555" type="curve" smooth="yes"/>
      <point x="250" y="555"/>
      <point x="269" y="539"/>
      <point x="281" y="519" type="curve" smooth="yes"/>
      <point x="293" y="498"/>
      <point x="299" y="471"/>
      <point x="299" y="448" type="curve" smooth="yes"/>
      <point x="299" y="0" type="line"/>
      <point x="198" y="0" type="line"/>
      <point x="198" y="433" type="line" smooth="yes"/>
      <point x="198" y="454"/>
      <point x="186" y="457"/>
      <point x="174" y="457" type="curve" smooth="yes"/>
    </contour>
    <contour>
      <point x="169" y="547" type="move" name="top"/>
    </contour>
    <contour>
      <point x="169" y="0" type="move" name="bottom"/>
    </contour>
  </outline>
</glyph>
<glyph name="x" format="1">
  <advance width="302"/>
  <unicode hex="0078"/>
  <outline>
    <contour>
      <point x="102" y="282" type="line"/>
      <point x="16" y="547" type="line"/>
      <point x="111" y="547" type="line"/>
      <point x="147" y="419" type="line"/>
      <point x="150" y="404" type="line"/>
      <point x="152" y="404" type="line"/>
      <point x="155" y="419" type="line"/>
      <point x="191" y="547" type="line"/>
      <point x="286" y="547" type="line"/>
      <point x="200" y="282" type="line"/>
      <point x="294" y="0" type="line"/>
      <point x="196" y="0" type="line"/>
      <point x="155" y="138" type="line"/>
      <point x="152" y="153" type="line"/>
      <point x="150" y="153" type="line"/>
      <point x="147" y="138" type="line"/>
      <point x="106" y="0" type="line"/>
      <point x="8" y="0" type="line"/>
    </contour>
  </outline>
</glyph>
<glyph name="braceleft" format="1">
  <advance width="336"/>
  <unicode hex="007B"/>
  <outline>
    <contour>
      <point x="94" y="638"/>
      <point x="109" y="683"/>
      <point x="143" y="710" type="curve" smooth="yes"/>
      <point x="177" y="737"/>
      <point x="231" y="744"/>
      <point x="308" y="743" type="curve"/>
      <point x="308" y="659" type="line"/>
      <point x="265" y="659"/>
      <point x="236" y="656"/>
      <point x="217" y="641" type="curve" smooth="yes"/>
      <point x="198" y="626"/>
      <point x="190" y="603"/>
      <point x="190" y="563" type="curve" smooth="yes"/>
      <point x="190" y="369" type="line" smooth="yes"/>
      <point x="190" y="316"/>
      <point x="167" y="285"/>
      <point x="128" y="261" type="curve"/>
      <point x="167" y="236"/>
      <point x="190" y="205"/>
      <point x="190" y="153" type="curve" smooth="yes"/>
      <point x="190" y="-41" type="line" smooth="yes"/>
      <point x="190" y="-81"/>
      <point x="198" y="-104"/>
      <point x="217" y="-119" type="curve" smooth="yes"/>
      <point x="236" y="-134"/>
      <point x="265" y="-137"/>
      <point x="308" y="-137" type="curve"/>
      <point x="308" y="-221" type="line"/>
      <point x="231" y="-222"/>
      <point x="177" y="-215"/>
      <point x="143" y="-188" type="curve" smooth="yes"/>
      <point x="109" y="-161"/>
      <point x="94" y="-116"/>
      <point x="94" y="-41" type="curve" smooth="yes"/>
      <point x="94" y="153" type="line" smooth="yes"/>
      <point x="94" y="160"/>
      <point x="91" y="175"/>
      <point x="82" y="191" type="curve" smooth="yes"/>
      <point x="73" y="206"/>
      <point x="57" y="220"/>
      <point x="30" y="221" type="curve"/>
      <point x="30" y="301" type="line"/>
      <point x="57" y="301"/>
      <point x="73" y="314"/>
      <point x="82" y="330" type="curve" smooth="yes"/>
      <point x="91" y="345"/>
      <point x="94" y="362"/>
      <point x="94" y="369" type="curve" smooth="yes"/>
      <point x="94" y="563" type="line" smooth="yes"/>
    </contour>
  </outline>
</glyph>
<glyph name="periodcentered" format="1">
  <advance width="105"/>
  <unicode hex="00B7"/>
  <outline>
    <contour>
      <point x="0" y="428" type="line"/>
      <point x="105" y="428" type="line"/>
      <point x="105" y="317" type="line"/>
      <point x="0" y="317" type="line"/>
    </contour>
  </outline>
</glyph>
<glyph name="Edieresis" format="1">
  <advance width="307"/>
  <unicode hex="00CB"/>
  <outline>
    <contour>
      <point x="40" y="735" type="line"/>
      <point x="287" y="735" type="line"/>
      <point x="287" y="624" type="line"/>
      <point x="148" y="624" type="line"/>
      <point x="148" y="431" type="line"/>
      <point x="248" y="431" type="line"/>
      <point x="248" y="313" type="line"/>
      <point x="148" y="313" type="line"/>
      <point x="148" y="111" type="line"/>
      <point x="287" y="111" type="line"/>
      <point x="287" y="0" type="line"/>
      <point x="40" y="0" type="line"/>
    </contour>
    <contour>
      <point x="46" y="898" type="line"/>
      <point x="139" y="898" type="line"/>
      <point x="139" y="800" type="line"/>
      <point x="46" y="800" type="line"/>
    </contour>
    <contour>
      <point x="187" y="898" type="line"/>
      <point x="280" y="898" type="line"/>
      <point x="280" y="800" type="line"/>
      <point x="187" y="800" type="line"/>
    </contour>
  </outline>
</glyph>
<glyph name="germandbls" format="1">
  <advance width="358"/>
  <unicode hex="00DF"/>
  <outline>
    <contour>
      <point x="169" y="547" type="line"/>
      <point x="192" y="547"/>
      <point x="211" y="569"/>
      <point x="211" y="604" type="curve" smooth="yes"/>
      <point x="211" y="631"/>
      <point x="198" y="653"/>
      <point x="169" y="653" type="curve" smooth="yes"/>
      <point x="144" y="653"/>
      <point x="133" y="630"/>
      <point x="133" y="603" type="curve" smooth="yes"/>
      <point x="133" y="0" type="line"/>
      <point x="32" y="0" type="line"/>
      <point x="32" y="603" type="line" smooth="yes"/>
      <point x="32" y="640"/>
      <point x="42" y="676"/>
      <point x="65" y="701" type="curve" smooth="yes"/>
      <point x="88" y="726"/>
      <point x="121" y="743"/>
      <point x="169" y="743" type="curve" smooth="yes"/>
      <point x="214" y="743"/>
      <point x="248" y="727"/>
      <point x="269" y="702" type="curve" smooth="yes"/>
      <point x="290" y="677"/>
      <point x="301" y="641"/>
      <point x="301" y="604" type="curve" smooth="yes"/>
      <point x="301" y="568"/>
      <point x="285" y="539"/>
      <point x="258" y="519" type="curve"/>
      <point x="281" y="506"/>
      <point x="299" y="484"/>
      <point x="312" y="446" type="curve" smooth="yes"/>
      <point x="325" y="408"/>
      <point x="332" y="354"/>
      <point x="332" y="281" type="curve" smooth="yes"/>
      <point x="332" y="160"/>
      <point x="318" y="89"/>
      <point x="290" y="49" type="curve" smooth="yes"/>
      <point x="262" y="9"/>
      <point x="221" y="0"/>
      <point x="169" y="0" type="curve"/>
      <point x="169" y="94" type="line"/>
      <point x="189" y="94"/>
      <point x="206" y="100"/>
      <point x="216" y="127" type="curve" smooth="yes"/>
      <point x="226" y="154"/>
      <point x="231" y="201"/>
      <point x="231" y="281" type="curve" smooth="yes"/>
      <point x="231" y="366"/>
      <point x="226" y="415"/>
      <point x="216" y="443" type="curve" smooth="yes"/>
      <point x="206" y="471"/>
      <point x="189" y="478"/>
      <point x="169" y="478" type="curve"/>
    </contour>
  </outline>
</glyph>
<glyph name="eth" format="1">
  <advance width="329"/>
  <unicode hex="00F0"/>
  <outline>
    <contour>
      <point x="185" y="736" type="line"/>
      <point x="188" y="733"/>
      <point x="190" y="730"/>
      <point x="193" y="727" type="curve" smooth="yes"/>
      <point x="196" y="724"/>
      <point x="199" y="721"/>
      <point x="202" y="718" type="curve"/>
      <point x="205" y="714"/>
      <point x="208" y="710"/>
      <point x="211" y="706" type="curve"/>
      <point x="257" y="746" type="line"/>
      <point x="284" y="714" type="line"/>
      <point x="235" y="671" type="line"/>
      <point x="266" y="623"/>
      <point x="296" y="553"/>
      <point x="296" y="453" type="curve" smooth="yes"/>
      <point x="296" y="133" type="line"/>
      <point x="293" y="80"/>
      <point x="277" y="43"/>
      <point x="242" y="14" type="curve" smooth="yes"/>
      <point x="224" y="-1"/>
      <point x="199" y="-8"/>
      <point x="166" y="-8" type="curve" smooth="yes"/>
      <point x="101" y="-8"/>
      <point x="69" y="28"/>
      <point x="53" y="64" type="curve" smooth="yes"/>
      <point x="44" y="85"/>
      <point x="38" y="109"/>
      <point x="37" y="136" type="curve"/>
      <point x="37" y="419" type="line" smooth="yes"/>
      <point x="37" y="428"/>
      <point x="37" y="463"/>
      <point x="47" y="495" type="curve" smooth="yes"/>
      <point x="57" y="526"/>
      <point x="77" y="555"/>
      <point x="121" y="555" type="curve" smooth="yes"/>
      <point x="144" y="555"/>
      <point x="170" y="540"/>
      <point x="197" y="517" type="curve"/>
      <point x="192" y="558"/>
      <point x="183" y="591"/>
      <point x="172" y="616" type="curve"/>
      <point x="132" y="581" type="line"/>
      <point x="105" y="612" type="line"/>
      <point x="154" y="655" type="line"/>
      <point x="147" y="666"/>
      <point x="142" y="674"/>
      <point x="138" y="679" type="curve"/>
      <point x="135" y="682"/>
      <point x="133" y="684"/>
      <point x="132" y="687" type="curve"/>
    </contour>
    <contour>
      <point x="201" y="411" type="line"/>
      <point x="202" y="432"/>
      <point x="198" y="447"/>
      <point x="188" y="459" type="curve"/>
      <point x="183" y="464"/>
      <point x="175" y="467"/>
      <point x="166" y="467" type="curve" smooth="yes"/>
      <point x="147" y="467"/>
      <point x="139" y="454"/>
      <point x="135" y="439" type="curve"/>
      <point x="132" y="431"/>
      <point x="131" y="422"/>
      <point x="132" y="411" type="curve"/>
      <point x="132" y="136" type="line"/>
      <point x="131" y="115"/>
      <point x="136" y="100"/>
      <point x="145" y="89" type="curve"/>
      <point x="150" y="84"/>
      <point x="157" y="81"/>
      <point x="166" y="81" type="curve" smooth="yes"/>
      <point x="185" y="81"/>
      <point x="194" y="93"/>
      <point x="198" y="108" type="curve"/>
      <point x="201" y="116"/>
      <point x="202" y="125"/>
      <point x="201" y="136" type="curve"/>
    </contour>
  </outline>
</glyph>
<glyph name="ntilde" format="1">
  <advance width="337"/>
  <unicode hex="00F1"/>
  <outline>
    <contour>
      <point x="163" y="457"/>
      <point x="157" y="451"/>
      <point x="150" y="444" type="curve"/>
      <point x="147" y="440"/>
      <point x="144" y="436"/>
      <point x="141" y="431" type="curve"/>
      <point x="141" y="0" type="line"/>
      <point x="40" y="0" type="line"/>
      <point x="40" y="547" type="line"/>
      <point x="141" y="547" type="line"/>
      <point x="141" y="501" type="line"/>
      <point x="143" y="502"/>
      <point x="147" y="506"/>
      <point x="153" y="512" type="curve" smooth="yes"/>
      <point x="164" y="523"/>
      <point x="179" y="538"/>
      <point x="197" y="548" type="curve" smooth="yes"/>
      <point x="206" y="553"/>
      <point x="214" y="555"/>
      <point x="223" y="555" type="curve" smooth="yes"/>
      <point x="250" y="555"/>
      <point x="269" y="539"/>
      <point x="281" y="519" type="curve" smooth="yes"/>
      <point x="293" y="498"/>
      <point x="299" y="471"/>
      <point x="299" y="448" type="curve" smooth="yes"/>
      <point x="299" y="0" type="line"/>
      <point x="198" y="0" type="line"/>
      <point x="198" y="433" type="line" smooth="yes"/>
      <point x="198" y="454"/>
      <point x="186" y="457"/>
      <point x="174" y="457" type="curve" smooth="yes"/>
    </contour>
    <contour>
      <point x="110" y="653"/>
      <point x="99" y="649"/>
      <point x="88" y="645" type="curve"/>
      <point x="82" y="642"/>
      <point x="77" y="640"/>
      <point x="72" y="637" type="curve"/>
      <point x="72" y="711" type="line"/>
      <point x="81" y="718"/>
      <point x="93" y="723"/>
      <point x="105" y="727" type="curve" smooth="yes"/>
      <point x="111" y="729"/>
      <point x="118" y="730"/>
      <point x="125" y="730" type="curve" smooth="yes"/>
      <point x="140" y="730"/>
      <point x="155" y="727"/>
      <point x="169" y="722" type="curve"/>
      <point x="183" y="716"/>
      <point x="198" y="712"/>
      <point x="213" y="711" type="curve"/>
      <point x="228" y="711"/>
      <point x="239" y="715"/>
      <point x="250" y="719" type="curve"/>
      <point x="256" y="722"/>
      <point x="261" y="724"/>
      <point x="266" y="727" type="curve"/>
      <point x="266" y="653" type="line"/>
      <point x="257" y="645"/>
      <point x="245" y="640"/>
      <point x="233" y="637" type="curve"/>
      <point x="227" y="635"/>
      <point x="220" y="634"/>
      <point x="213" y="634" type="curve" smooth="yes"/>
      <point x="198" y="634"/>
      <point x="183" y="637"/>
      <point x="170" y="643" type="curve" smooth="yes"/>
      <point x="156" y="649"/>
      <point x="141" y="652"/>
      <point x="125" y="653" type="curve"/>
    </contour>
  </outline>
</glyph>
<glyph name="otilde" format="1">
  <advance width="321"/>
  <unicode hex="00F5"/>
  <outline>
    <contour>
      <point x="290" y="133" type="line"/>
      <point x="287" y="80"/>
      <point x="271" y="43"/>
      <point x="236" y="14" type="curve" smooth="yes"/>
      <point x="218" y="-1"/>
      <point x="193" y="-8"/>
      <point x="160" y="-8" type="curve" smooth="yes"/>
      <point x="95" y="-8"/>
      <point x="63" y="28"/>
      <point x="47" y="64" type="curve" smooth="yes"/>
      <point x="38" y="85"/>
      <point x="32" y="109"/>
      <point x="31" y="136" type="curve"/>
      <point x="31" y="411" type="line"/>
      <point x="34" y="464"/>
      <point x="50" y="503"/>
      <point x="85" y="533" type="curve" smooth="yes"/>
      <point x="102" y="548"/>
      <point x="127" y="555"/>
      <point x="160" y="555" type="curve" smooth="yes"/>
      <point x="225" y="555"/>
      <point x="258" y="519"/>
      <point x="274" y="484" type="curve" smooth="yes"/>
      <point x="283" y="463"/>
      <point x="289" y="440"/>
      <point x="290" y="414" type="curve"/>
    </contour>
    <contour>
      <point x="195" y="411" type="line"/>
      <point x="196" y="432"/>
      <point x="192" y="447"/>
      <point x="182" y="459" type="curve"/>
      <point x="177" y="464"/>
      <point x="169" y="467"/>
      <point x="160" y="467" type="curve" smooth="yes"/>
      <point x="141" y="467"/>
      <point x="133" y="454"/>
      <point x="129" y="439" type="curve"/>
      <point x="126" y="431"/>
      <point x="125" y="422"/>
      <point x="126" y="411" type="curve"/>
      <point x="126" y="136" type="line"/>
      <point x="125" y="115"/>
      <point x="130" y="100"/>
      <point x="139" y="89" type="curve"/>
      <point x="144" y="84"/>
      <point x="151" y="81"/>
      <point x="160" y="81" type="curve" smooth="yes"/>
      <point x="179" y="81"/>
      <point x="188" y="93"/>
      <point x="192" y="108" type="curve"/>
      <point x="195" y="116"/>
      <point x="196" y="125"/>
      <point x="195" y="136" type="curve"/>
    </contour>
    <contour>
      <point x="102" y="653"/>
      <point x="91" y="649"/>
      <point x="80" y="645" type="curve"/>
      <point x="74" y="642"/>
      <point x="69" y="640"/>
      <point x="64" y="637" type="curve"/>
      <point x="64" y="711" type="line"/>
      <point x="73" y="718"/>
      <point x="85" y="723"/>
      <point x="97" y="727" type="curve" smooth="yes"/>
      <point x="103" y="729"/>
      <point x="110" y="730"/>
      <point x="117" y="730" type="curve" smooth="yes"/>
      <point x="132" y="730"/>
      <point x="147" y="727"/>
      <point x="161" y="722" type="curve"/>
      <point x="175" y="716"/>
      <point x="190" y="712"/>
      <point x="205" y="711" type="curve"/>
      <point x="220" y="711"/>
      <point x="231" y="715"/>
      <point x="242" y="719" type="curve"/>
      <point x="248" y="722"/>
      <point x="253" y="724"/>
      <point x="258" y="727" type="curve"/>
      <point x="258" y="653" type="line"/>
      <point x="249" y="645"/>
      <point x="237" y="640"/>
      <point x="225" y="637" type="curve"/>
      <point x="219" y="635"/>
      <point x="212" y="634"/>
      <point x="205" y="634" type="curve" smooth="yes"/>
      <point x="190" y="634"/>
      <point x="175" y="637"/>
      <point x="162" y="643" type="curve" smooth="yes"/>
      <point x="148" y="649"/>
      <point x="133" y="652"/>
      <point x="117" y="653" type="curve"/>
    </contour>
  </outline>
</glyph>
<glyph name="Gdotaccent" format="1">
  <advance width="360"/>
  <unicode hex="0120"/>
  <outline>
    <contour>
      <point x="213" y="471" type="line"/>
      <point x="213" y="584" type="line" smooth="yes"/>
      <point x="213" y="604"/>
      <point x="209" y="618"/>
      <point x="199" y="630" type="curve"/>
      <point x="194" y="635"/>
      <point x="186" y="638"/>
      <point x="177" y="638" type="curve" smooth="yes"/>
      <point x="158" y="638"/>
      <point x="149" y="624"/>
      <point x="145" y="611" type="curve"/>
      <point x="142" y="603"/>
      <point x="141" y="594"/>
      <point x="141" y="584" type="curve" smooth="yes"/>
      <point x="141" y="142" type="line" smooth="yes"/>
      <point x="141" y="121"/>
      <point x="146" y="107"/>
      <point x="156" y="96" type="curve"/>
      <point x="161" y="91"/>
      <point x="168" y="88"/>
      <point x="177" y="88" type="curve" smooth="yes"/>
      <point x="196" y="88"/>
      <point x="205" y="100"/>
      <point x="209" y="115" type="curve"/>
      <point x="212" y="122"/>
      <point x="213" y="131"/>
      <point x="213" y="142" type="curve" smooth="yes"/>
      <point x="213" y="275" type="line"/>
      <point x="170" y="275" type="line"/>
      <point x="170" y="366" type="line"/>
      <point x="321" y="366" type="line"/>
      <point x="321" y="0" type="line"/>
      <point x="257" y="0" type="line"/>
      <point x="244" y="35" type="line"/>
      <point x="224" y="10"/>
      <point x="195" y="-8"/>
      <point x="160" y="-8" type="curve" smooth="yes"/>
      <point x="125" y="-8"/>
      <point x="101" y="1"/>
      <point x="83" y="17" type="curve" smooth="yes"/>
      <point x="65" y="32"/>
      <point x="53" y="51"/>
      <point x="45" y="71" type="curve" smooth="yes"/>
      <point x="36" y="94"/>
      <point x="32" y="121"/>
      <point x="33" y="151" type="curve" smooth="yes"/>
      <point x="33" y="584" type="line" smooth="yes"/>
      <point x="34" y="613"/>
      <point x="40" y="640"/>
      <point x="51" y="663" type="curve" smooth="yes"/>
      <point x="60" y="683"/>
      <point x="73" y="703"/>
      <point x="93" y="718" type="curve" smooth="yes"/>
      <point x="113" y="733"/>
      <point x="141" y="743"/>
      <point x="177" y="743" type="curve" smooth="yes"/>
      <point x="213" y="743"/>
      <point x="240" y="733"/>
      <point x="260" y="718" type="curve" smooth="yes"/>
      <point x="280" y="703"/>
      <point x="294" y="683"/>
      <point x="303" y="663" type="curve" smooth="yes"/>
      <point x="314" y="640"/>
      <point x="320" y="613"/>
      <point x="321" y="584" type="curve" smooth="yes"/>
      <point x="321" y="471" type="line"/>
    </contour>
    <contour>
      <point x="131" y="923" type="line"/>
      <point x="232" y="923" type="line"/>
      <point x="232" y="822" type="line"/>
      <point x="131" y="822" type="line"/>
    </contour>
  </outline>
</glyph>
<glyph name="lacute" format="1">
  <advance width="181"/>
  <unicode hex="013A"/>
  <outline>
    <contour>
      <point x="40" y="0" type="line"/>
      <point x="40" y="735" type="line"/>
      <point x="141" y="735" type="line"/>
      <point x="141" y="0" type="line"/>
    </contour>
    <contour>
      <point x="170" y="838" type="line"/>
      <point x="91" y="748" type="line"/>
      <point x="13" y="748" type="line"/>
      <point x="65" y="838" type="line"/>
    </contour>
  </outline>
</glyph>
<glyph name="lcaron" format="1">
  <advance width="332"/>
  <unicode hex="013E"/>
  <outline>
    <contour>
      <point x="40" y="0" type="line"/>
      <point x="40" y="735" type="line"/>
      <point x="141" y="735" type="line"/>
      <point x="141" y="0" type="line"/>
    </contour>
    <contour>
      <point x="308" y="624" type="line"/>
      <point x="253" y="494" type="line"/>
      <point x="203" y="494" type="line"/>
      <point x="238" y="624" type="line"/>
      <point x="203" y="624" type="line"/>
      <point x="203" y="735" type="line"/>
      <point x="308" y="735" type="line"/>
    </contour>
  </outline>
</glyph>
<glyph name="Lslash" format="1">
  <advance width="307"/>
  <unicode hex="0141"/>
  <outline>
    <contour>
      <point x="20" y="382" type="line"/>
      <point x="52" y="407" type="line"/>
      <point x="52" y="735" type="line"/>
      <point x="160" y="735" type="line"/>
      <point x="160" y="491" type="line"/>
      <point x="219" y="537" type="line"/>
      <point x="219" y="429" type="line"/>
      <point x="160" y="383" type="line"/>
      <point x="160" y="100" type="line"/>
      <point x="303" y="100" type="line"/>
      <point x="303" y="0" type="line"/>
      <point x="52" y="0" type="line"/>
      <point x="52" y="299" type="line"/>
      <point x="20" y="274" type="line"/>
    </contour>
  </outline>
</glyph>
<glyph name="Racute" format="1">
  <advance width="361"/>
  <unicode hex="0154"/>
  <outline>
    <contour>
      <point x="233" y="0" type="line"/>
      <point x="177" y="310" type="line"/>
      <point x="148" y="310" type="line"/>
      <point x="148" y="0" type="line"/>
      <point x="40" y="0" type="line"/>
      <point x="40" y="735" type="line"/>
      <point x="148" y="735" type="line" smooth="yes"/>
      <point x="277" y="735"/>
      <point x="332" y="662"/>
      <point x="332" y="523" type="curve" smooth="yes"/>
      <point x="332" y="450"/>
      <point x="313" y="384"/>
      <point x="272" y="356" type="curve"/>
      <point x="341" y="0" type="line"/>
    </contour>
    <contour>
      <point x="228" y="571"/>
      <point x="215" y="599"/>
      <point x="199" y="613" type="curve" smooth="yes"/>
      <point x="183" y="627"/>
      <point x="163" y="628"/>
      <point x="148" y="628" type="curve"/>
      <point x="148" y="410" type="line"/>
      <point x="163" y="410"/>
      <point x="183" y="412"/>
      <point x="199" y="426" type="curve" smooth="yes"/>
      <point x="215" y="440"/>
      <point x="228" y="467"/>
      <point x="228" y="519" type="curve" smooth="yes"/>
    </contour>
    <contour>
      <point x="260" y="915" type="line"/>
      <point x="181" y="825" type="line"/>
      <point x="103" y="825" type="line"/>
      <point x="155" y="915" type="line"/>
    </contour>
  </outline>
</glyph>
<glyph name="utilde" format="1">
  <advance width="337"/>
  <unicode hex="0169"/>
  <outline>
    <contour>
      <point x="174" y="90"/>
      <point x="180" y="96"/>
      <point x="187" y="103" type="curve" smooth="yes"/>
      <point x="190" y="106"/>
      <point x="193" y="111"/>
      <point x="196" y="116" type="curve"/>
      <point x="196" y="547" type="line"/>
      <point x="297" y="547" type="line"/>
      <point x="297" y="0" type="line"/>
      <point x="196" y="0" type="line"/>
      <point x="196" y="46" type="line"/>
      <point x="194" y="45"/>
      <point x="190" y="41"/>
      <point x="185" y="36" type="curve" smooth="yes"/>
      <point x="173" y="24"/>
      <point x="159" y="10"/>
      <point x="141" y="0" type="curve" smooth="yes"/>
      <point x="132" y="-5"/>
      <point x="123" y="-8"/>
      <point x="114" y="-8" type="curve" smooth="yes"/>
      <point x="87" y="-8"/>
      <point x="68" y="8"/>
      <point x="56" y="29" type="curve" smooth="yes"/>
      <point x="44" y="49"/>
      <point x="38" y="76"/>
      <point x="38" y="99" type="curve" smooth="yes"/>
      <point x="38" y="547" type="line"/>
      <point x="139" y="547" type="line"/>
      <point x="139" y="114" type="line" smooth="yes"/>
      <point x="139" y="93"/>
      <point x="151" y="90"/>
      <point x="163" y="90" type="curve" smooth="yes"/>
    </contour>
    <contour>
      <point x="111" y="653"/>
      <point x="100" y="649"/>
      <point x="89" y="645" type="curve"/>
      <point x="83" y="642"/>
      <point x="78" y="640"/>
      <point x="73" y="637" type="curve"/>
      <point x="73" y="711" type="line"/>
      <point x="82" y="718"/>
      <point x="94" y="723"/>
      <point x="106" y="727" type="curve" smooth="yes"/>
      <point x="112" y="729"/>
      <point x="119" y="730"/>
      <point x="126" y="730" type="curve" smooth="yes"/>
      <point x="141" y="730"/>
      <point x="156" y="727"/>
      <point x="170" y="722" type="curve"/>
      <point x="184" y="716"/>
      <point x="199" y="712"/>
      <point x="214" y="711" type="curve"/>
      <point x="229" y="711"/>
      <point x="240" y="715"/>
      <point x="251" y="719" type="curve"/>
      <point x="257" y="722"/>
      <point x="262" y="724"/>
      <point x="267" y="727" type="curve"/>
      <point x="267" y="653" type="line"/>
      <point x="258" y="645"/>
      <point x="246" y="640"/>
      <point x="234" y="637" type="curve"/>
      <point x="228" y="635"/>
      <point x="221" y="634"/>
      <point x="214" y="634" type="curve" smooth="yes"/>
      <point x="199" y="634"/>
      <point x="184" y="637"/>
      <point x="171" y="643" type="curve" smooth="yes"/>
      <point x="157" y="649"/>
      <point x="142" y="652"/>
      <point x="126" y="653" type="curve"/>
    </contour>
  </outline>
</glyph>
<glyph name="uring" format="1">
  <advance width="337"/>
  <unicode hex="016F"/>
  <outline>
    <contour>
      <point x="174" y="90"/>
      <point x="180" y="96"/>
      <point x="187" y="103" type="curve" smooth="yes"/>
      <point x="190" y="106"/>
      <point x="193" y="111"/>
      <point x="196" y="116" type="curve"/>
      <point x="196" y="547" type="line"/>
      <point x="297" y="547" type="line"/>
      <point x="297" y="0" type="line"/>
      <point x="196" y="0" type="line"/>
      <point x="196" y="46" type="line"/>
      <point x="194" y="45"/>
      <point x="190" y="41"/>
      <point x="185" y="36" type="curve" smooth="yes"/>
      <point x="173" y="24"/>
      <point x="159" y="10"/>
      <point x="141" y="0" type="curve" smooth="yes"/>
      <point x="132" y="-5"/>
      <point x="123" y="-8"/>
      <point x="114" y="-8" type="curve" smooth="yes"/>
      <point x="87" y="-8"/>
      <point x="68" y="8"/>
      <point x="56" y="29" type="curve" smooth="yes"/>
      <point x="44" y="49"/>
      <point x="38" y="76"/>
      <point x="38" y="99" type="curve" smooth="yes"/>
      <point x="38" y="547" type="line"/>
      <point x="139" y="547" type="line"/>
      <point x="139" y="114" type="line" smooth="yes"/>
      <point x="139" y="93"/>
      <point x="151" y="90"/>
      <point x="163" y="90" type="curve" smooth="yes"/>
    </contour>
    <contour>
      <point x="95" y="735"/>
      <point x="129" y="764"/>
      <point x="170" y="764" type="curve" smooth="yes"/>
      <point x="211" y="764"/>
      <point x="244" y="735"/>
      <point x="244" y="694" type="curve" smooth="yes"/>
      <point x="244" y="653"/>
      <point x="211" y="624"/>
      <point x="170" y="624" type="curve" smooth="yes"/>
      <point x="129" y="624"/>
      <point x="95" y="653"/>
      <point x="95" y="694" type="curve" smooth="yes"/>
    </contour>
    <contour>
      <point x="133" y="675"/>
      <point x="151" y="659"/>
      <point x="170" y="659" type="curve" smooth="yes"/>
      <point x="189" y="659"/>
      <point x="207" y="675"/>
      <point x="207" y="694" type="curve" smooth="yes"/>
      <point x="207" y="713"/>
      <point x="189" y="729"/>
      <point x="170" y="729" type="curve" smooth="yes"/>
      <point x="151" y="729"/>
      <point x="133" y="713"/>
      <point x="133" y="694" type="curve" smooth="yes"/>
    </contour>
  </outline>
</glyph>
<glyph name="uogonek" format="1">
  <advance width="337"/>
  <unicode hex="0173"/>
  <outline>
    <contour>
      <point x="174" y="90"/>
      <point x="180" y="96"/>
      <point x="187" y="103" type="curve" smooth="yes"/>
      <point x="190" y="106"/>
      <point x="193" y="111"/>
      <point x="196" y="116" type="curve"/>
      <point x="196" y="547" type="line"/>
      <point x="297" y="547" type="line"/>
      <point x="297" y="0" type="line"/>
      <point x="196" y="0" type="line"/>
      <point x="196" y="46" type="line"/>
      <point x="194" y="45"/>
      <point x="190" y="41"/>
      <point x="185" y="36" type="curve" smooth="yes"/>
      <point x="173" y="24"/>
      <point x="159" y="10"/>
      <point x="141" y="0" type="curve" smooth="yes"/>
      <point x="132" y="-5"/>
      <point x="123" y="-8"/>
      <point x="114" y="-8" type="curve" smooth="yes"/>
      <point x="87" y="-8"/>
      <point x="68" y="8"/>
      <point x="56" y="29" type="curve" smooth="yes"/>
      <point x="44" y="49"/>
      <point x="38" y="76"/>
      <point x="38" y="99" type="curve" smooth="yes"/>
      <point x="38" y="547" type="line"/>
      <point x="139" y="547" type="line"/>
      <point x="139" y="114" type="line" smooth="yes"/>
      <point x="139" y="93"/>
      <point x="151" y="90"/>
      <point x="163" y="90" type="curve" smooth="yes"/>
    </contour>
    <contour>
      <point x="137" y="-75"/>
      <point x="153" y="-50"/>
      <point x="170" y="-31" type="curve"/>
      <point x="179" y="-20"/>
      <point x="190" y="-9"/>
      <point x="203" y="0" type="curve"/>
      <point x="251" y="0" type="line"/>
      <point x="234" y="-15"/>
      <point x="222" y="-30"/>
      <point x="213" y="-50" type="curve"/>
      <point x="208" y="-60"/>
      <point x="206" y="-71"/>
      <point x="206" y="-83" type="curve" smooth="yes"/>
      <point x="206" y="-112"/>
      <point x="233" y="-121"/>
      <point x="256" y="-121" type="curve" smooth="yes"/>
      <point x="273" y="-121"/>
      <point x="286" y="-117"/>
      <point x="298" y="-112" type="curve"/>
      <point x="290" y="-179" type="line"/>
      <point x="269" y="-186"/>
      <point x="256" y="-188"/>
      <point x="239" y="-188" type="curve" smooth="yes"/>
      <point x="174" y="-188"/>
      <point x="137" y="-148"/>
      <point x="137" y="-103" type="curve" smooth="yes"/>
    </contour>
  </outline>
</glyph>
<glyph name="circumflex" format="1">
  <advance width="499"/>
  <unicode hex="02C6"/>
  <outline>
    <contour>
      <point x="303" y="727" type="line"/>
      <point x="372" y="637" type="line"/>
      <point x="280" y="637" type="line"/>
      <point x="249" y="672" type="line"/>
      <point x="219" y="637" type="line"/>
      <point x="127" y="637" type="line"/>
      <point x="196" y="727" type="line"/>
    </contour>
    <contour>
      <point x="249.5" y="547" type="move" name="_top"/>
    </contour>
  </outline>
</glyph>
<glyph name="breve" format="1">
  <advance width="500"/>
  <unicode hex="02D8"/>
  <outline>
    <contour>
      <point x="360" y="683" type="line"/>
      <point x="343" y="666"/>
      <point x="323" y="652"/>
      <point x="296" y="643" type="curve"/>
      <point x="283" y="638"/>
      <point x="267" y="636"/>
      <point x="250" y="636" type="curve" smooth="yes"/>
      <point x="215" y="636"/>
      <point x="188" y="647"/>
      <point x="169" y="659" type="curve" smooth="yes"/>
      <point x="158" y="666"/>
      <point x="148" y="674"/>
      <point x="140" y="683" type="curve"/>
      <point x="194" y="729" type="line"/>
      <point x="201" y="720"/>
      <point x="212" y="713"/>
      <point x="226" y="709" type="curve" smooth="yes"/>
      <point x="233" y="707"/>
      <point x="241" y="706"/>
      <point x="250" y="706" type="curve" smooth="yes"/>
      <point x="269" y="706"/>
      <point x="282" y="710"/>
      <point x="293" y="717" type="curve"/>
      <point x="299" y="720"/>
      <point x="304" y="724"/>
      <point x="308" y="729" type="curve"/>
    </contour>
    <contour>
      <point x="250" y="547" type="move" name="_top"/>
    </contour>
  </outline>
</glyph>
<glyph name="bullet" format="1">
  <advance width="324"/>
  <unicode hex="2022"/>
  <outline>
    <contour>
      <point x="40" y="432"/>
      <point x="54" y="463"/>
      <point x="76" y="485" type="curve" smooth="yes"/>
      <point x="98" y="507"/>
      <point x="128" y="520"/>
      <point x="163" y="520" type="curve" smooth="yes"/>
      <point x="196" y="520"/>
      <point x="227" y="507"/>
      <point x="249" y="485" type="curve" smooth="yes"/>
      <point x="271" y="463"/>
      <point x="284" y="432"/>
      <point x="284" y="399" type="curve" smooth="yes"/>
      <point x="284" y="364"/>
      <point x="271" y="334"/>
      <point x="249" y="312" type="curve" smooth="yes"/>
      <point x="227" y="290"/>
      <point x="196" y="276"/>
      <point x="163" y="276" type="curve" smooth="yes"/>
      <point x="128" y="276"/>
      <point x="98" y="290"/>
      <point x="76" y="312" type="curve" smooth="yes"/>
      <point x="54" y="334"/>
      <point x="40" y="364"/>
      <point x="40" y="399" type="curve" smooth="yes"/>
    </contour>
  </outline>
</glyph>
